<svg width="200.002686" height="60.999512" viewBox="0 0 200.003 60.9995" fill="none" xmlns="http://www.w3.org/2000/svg" xmlns:xlink="http://www.w3.org/1999/xlink">
	<desc>
			Created with Pixso.
	</desc>
	<defs>
		<linearGradient id="paint_linear_1_324_0" x1="5.665985" y1="159.917603" x2="48.900848" y2="-96.680511" gradientUnits="userSpaceOnUse">
			<stop stop-color="#FFE5C2"/>
			<stop offset="1.000000" stop-color="#C49575"/>
		</linearGradient>
		<linearGradient id="paint_linear_1_325_0" x1="22.742752" y1="123.950943" x2="42.239227" y2="-38.348740" gradientUnits="userSpaceOnUse">
			<stop stop-color="#FFE5C2"/>
			<stop offset="1.000000" stop-color="#C49575"/>
		</linearGradient>
		<linearGradient id="paint_linear_1_326_0" x1="59.088135" y1="131.022949" x2="75.484634" y2="-49.865280" gradientUnits="userSpaceOnUse">
			<stop stop-color="#FFE5C2"/>
			<stop offset="1.000000" stop-color="#C49575"/>
		</linearGradient>
		<linearGradient id="paint_linear_1_327_0" x1="91.901314" y1="72.583282" x2="95.572105" y2="48.328175" gradientUnits="userSpaceOnUse">
			<stop stop-color="#FFE5C2"/>
			<stop offset="1.000000" stop-color="#C49575"/>
		</linearGradient>
		<linearGradient id="paint_linear_1_328_0" x1="97.522629" y1="70.154877" x2="100.459396" y2="52.473606" gradientUnits="userSpaceOnUse">
			<stop stop-color="#FFE5C2"/>
			<stop offset="1.000000" stop-color="#C49575"/>
		</linearGradient>
		<linearGradient id="paint_linear_1_329_0" x1="102.410400" y1="69.732277" x2="105.152115" y2="52.731430" gradientUnits="userSpaceOnUse">
			<stop stop-color="#FFE5C2"/>
			<stop offset="1.000000" stop-color="#C49575"/>
		</linearGradient>
		<linearGradient id="paint_linear_1_330_0" x1="106.865692" y1="71.445709" x2="108.905121" y2="49.911926" gradientUnits="userSpaceOnUse">
			<stop stop-color="#FFE5C2"/>
			<stop offset="1.000000" stop-color="#C49575"/>
		</linearGradient>
		<linearGradient id="paint_linear_1_331_0" x1="110.220940" y1="69.855026" x2="112.056221" y2="52.627018" gradientUnits="userSpaceOnUse">
			<stop stop-color="#FFE5C2"/>
			<stop offset="1.000000" stop-color="#C49575"/>
		</linearGradient>
		<linearGradient id="paint_linear_1_332_0" x1="113.797134" y1="70.041016" x2="116.489014" y2="52.586903" gradientUnits="userSpaceOnUse">
			<stop stop-color="#FFE5C2"/>
			<stop offset="1.000000" stop-color="#C49575"/>
		</linearGradient>
		<linearGradient id="paint_linear_1_333_0" x1="118.221512" y1="72.209892" x2="119.445221" y2="48.635178" gradientUnits="userSpaceOnUse">
			<stop stop-color="#FFE5C2"/>
			<stop offset="1.000000" stop-color="#C49575"/>
		</linearGradient>
		<linearGradient id="paint_linear_1_334_0" x1="123.358398" y1="72.433090" x2="127.396225" y2="48.632278" gradientUnits="userSpaceOnUse">
			<stop stop-color="#FFE5C2"/>
			<stop offset="1.000000" stop-color="#C49575"/>
		</linearGradient>
		<linearGradient id="paint_linear_1_335_0" x1="128.484619" y1="70.160309" x2="131.014175" y2="52.479057" gradientUnits="userSpaceOnUse">
			<stop stop-color="#FFE5C2"/>
			<stop offset="1.000000" stop-color="#C49575"/>
		</linearGradient>
		<linearGradient id="paint_linear_1_336_0" x1="132.612045" y1="60.058037" x2="133.427689" y2="55.978355" gradientUnits="userSpaceOnUse">
			<stop stop-color="#FFE5C2"/>
			<stop offset="1.000000" stop-color="#C49575"/>
		</linearGradient>
		<linearGradient id="paint_linear_1_337_0" x1="132.678925" y1="69.789307" x2="133.249756" y2="52.788403" gradientUnits="userSpaceOnUse">
			<stop stop-color="#FFE5C2"/>
			<stop offset="1.000000" stop-color="#C49575"/>
		</linearGradient>
		<linearGradient id="paint_linear_1_338_0" x1="135.188431" y1="70.041016" x2="137.880310" y2="52.586903" gradientUnits="userSpaceOnUse">
			<stop stop-color="#FFE5C2"/>
			<stop offset="1.000000" stop-color="#C49575"/>
		</linearGradient>
		<linearGradient id="paint_linear_1_339_0" x1="139.775513" y1="69.732254" x2="142.517212" y2="52.731430" gradientUnits="userSpaceOnUse">
			<stop stop-color="#FFE5C2"/>
			<stop offset="1.000000" stop-color="#C49575"/>
		</linearGradient>
		<linearGradient id="paint_linear_1_340_0" x1="147.111694" y1="72.350838" x2="149.926056" y2="48.550026" gradientUnits="userSpaceOnUse">
			<stop stop-color="#FFE5C2"/>
			<stop offset="1.000000" stop-color="#C49575"/>
		</linearGradient>
		<linearGradient id="paint_linear_1_341_0" x1="151.623474" y1="69.799042" x2="154.682480" y2="52.798141" gradientUnits="userSpaceOnUse">
			<stop stop-color="#FFE5C2"/>
			<stop offset="1.000000" stop-color="#C49575"/>
		</linearGradient>
		<linearGradient id="paint_linear_1_342_0" x1="156.186203" y1="74.090073" x2="159.008575" y2="50.062119" gradientUnits="userSpaceOnUse">
			<stop stop-color="#FFE5C2"/>
			<stop offset="1.000000" stop-color="#C49575"/>
		</linearGradient>
		<linearGradient id="paint_linear_1_343_0" x1="161.096390" y1="70.157089" x2="164.035263" y2="52.475838" gradientUnits="userSpaceOnUse">
			<stop stop-color="#FFE5C2"/>
			<stop offset="1.000000" stop-color="#C49575"/>
		</linearGradient>
		<linearGradient id="paint_linear_1_344_0" x1="168.309280" y1="72.469795" x2="171.816849" y2="48.441856" gradientUnits="userSpaceOnUse">
			<stop stop-color="#FFE5C2"/>
			<stop offset="1.000000" stop-color="#C49575"/>
		</linearGradient>
		<linearGradient id="paint_linear_1_345_0" x1="174.034576" y1="69.797424" x2="176.563507" y2="52.796524" gradientUnits="userSpaceOnUse">
			<stop stop-color="#FFE5C2"/>
			<stop offset="1.000000" stop-color="#C49575"/>
		</linearGradient>
		<linearGradient id="paint_linear_1_346_0" x1="178.289795" y1="72.535225" x2="181.144867" y2="48.506668" gradientUnits="userSpaceOnUse">
			<stop stop-color="#FFE5C2"/>
			<stop offset="1.000000" stop-color="#C49575"/>
		</linearGradient>
		<linearGradient id="paint_linear_1_347_0" x1="183.088531" y1="70.154869" x2="186.025116" y2="52.473614" gradientUnits="userSpaceOnUse">
			<stop stop-color="#FFE5C2"/>
			<stop offset="1.000000" stop-color="#C49575"/>
		</linearGradient>
		<linearGradient id="paint_linear_1_348_0" x1="188.029083" y1="72.350830" x2="190.721161" y2="48.550014" gradientUnits="userSpaceOnUse">
			<stop stop-color="#FFE5C2"/>
			<stop offset="1.000000" stop-color="#C49575"/>
		</linearGradient>
		<linearGradient id="paint_linear_1_349_0" x1="192.162811" y1="69.789330" x2="192.733673" y2="52.788429" gradientUnits="userSpaceOnUse">
			<stop stop-color="#FFE5C2"/>
			<stop offset="1.000000" stop-color="#C49575"/>
		</linearGradient>
		<linearGradient id="paint_linear_1_350_0" x1="192.038361" y1="60.057861" x2="192.854034" y2="55.978184" gradientUnits="userSpaceOnUse">
			<stop stop-color="#FFE5C2"/>
			<stop offset="1.000000" stop-color="#C49575"/>
		</linearGradient>
		<linearGradient id="paint_linear_1_351_0" x1="194.446365" y1="70.160294" x2="196.976120" y2="52.479042" gradientUnits="userSpaceOnUse">
			<stop stop-color="#FFE5C2"/>
			<stop offset="1.000000" stop-color="#C49575"/>
		</linearGradient>
		<linearGradient id="paint_linear_1_352_0" x1="198.408020" y1="71.445732" x2="200.447433" y2="49.911945" gradientUnits="userSpaceOnUse">
			<stop stop-color="#FFE5C2"/>
			<stop offset="1.000000" stop-color="#C49575"/>
		</linearGradient>
		<linearGradient id="paint_linear_1_353_0" x1="202.099930" y1="70.041031" x2="204.791824" y2="52.586918" gradientUnits="userSpaceOnUse">
			<stop stop-color="#FFE5C2"/>
			<stop offset="1.000000" stop-color="#C49575"/>
		</linearGradient>
		<linearGradient id="paint_linear_1_354_0" x1="206.742950" y1="69.732277" x2="209.484680" y2="52.731430" gradientUnits="userSpaceOnUse">
			<stop stop-color="#FFE5C2"/>
			<stop offset="1.000000" stop-color="#C49575"/>
		</linearGradient>
		<linearGradient id="paint_linear_1_355_0" x1="126.955246" y1="104.289627" x2="151.835190" y2="-31.943298" gradientUnits="userSpaceOnUse">
			<stop stop-color="#FFE5C2"/>
			<stop offset="1.000000" stop-color="#C49575"/>
		</linearGradient>
		<linearGradient id="paint_linear_1_356_0" x1="92.629852" y1="105.063240" x2="114.532410" y2="-33.209541" gradientUnits="userSpaceOnUse">
			<stop stop-color="#FFE5C2"/>
			<stop offset="1.000000" stop-color="#C49575"/>
		</linearGradient>
		<linearGradient id="paint_linear_1_357_0" x1="188.494232" y1="89.163773" x2="206.930145" y2="-8.534239" gradientUnits="userSpaceOnUse">
			<stop stop-color="#FFE5C2"/>
			<stop offset="1.000000" stop-color="#C49575"/>
		</linearGradient>
		<linearGradient id="paint_linear_1_358_0" x1="159.459564" y1="102.525192" x2="178.262482" y2="-30.987690" gradientUnits="userSpaceOnUse">
			<stop stop-color="#FFE5C2"/>
			<stop offset="1.000000" stop-color="#C49575"/>
		</linearGradient>
	</defs>
	<path id="Vector" d="M27.6345 0C12.4385 0 0 12.4023 0 27.6606L0 58.9683L5.51636 58.9683L5.51636 27.6606C5.51636 15.4714 15.4043 5.57397 27.583 5.57397C39.7615 5.57397 49.6494 15.4714 49.6494 27.6606L49.6494 58.9683L55.1658 58.9683L55.1658 27.6606C55.2698 12.4023 42.8835 0 27.6345 0Z" fill="url(#paint_linear_1_324_0)" fill-opacity="1.000000" fill-rule="nonzero"/>
	<path id="Vector" d="M38.8235 34.5369C37.1274 33.5125 35.1841 32.9722 33.2031 32.9744C30.2773 32.9758 27.4717 34.1401 25.4031 36.2112C23.3342 38.2822 22.1716 41.0908 22.1704 44.0195L22.1704 58.916L27.6868 58.916L27.6868 44.0195C27.6868 42.5547 28.2681 41.1504 29.3025 40.115C30.3372 39.0793 31.7402 38.4978 33.2031 38.4978C34.6663 38.4978 36.0693 39.0793 37.104 40.115C38.1384 41.1504 38.7197 42.5547 38.7197 44.0195L38.7197 58.916L44.2395 58.916L44.2395 36.7246C44.2395 33.5996 45.2805 30.7341 47.05 28.3401C46.9978 26.0474 46.6863 23.7556 45.9053 21.6201C41.9661 24.8484 39.4292 29.4785 38.8269 34.5386L38.8235 34.5369Z" fill="url(#paint_linear_1_325_0)" fill-opacity="1.000000" fill-rule="nonzero"/>
	<path id="Vector" d="M58.0264 17.3994C57.5042 17.4062 56.9827 17.4409 56.4644 17.5034C57.0879 19.2751 57.5237 21.1077 57.7644 22.9709L58.0769 22.9709C65.6753 22.9709 71.8687 29.1719 71.8687 36.7759L71.8687 58.9688L77.3853 58.9688L77.3853 36.7776C77.3328 26.0461 68.6934 17.3994 58.0254 17.3994L58.0264 17.3994Z" fill="url(#paint_linear_1_326_0)" fill-opacity="1.000000" fill-rule="nonzero"/>
	<path id="Vector" d="M91.6475 54.6445C92.4275 54.6445 92.896 55.1133 93.0522 55.5825L93.8892 55.5825C93.7329 54.749 92.9004 53.915 91.5994 53.915C90.1936 53.915 89.2051 54.9048 89.2051 56.4678L89.2051 56.936C89.2051 58.5513 90.2461 59.4893 91.5994 59.4893C92.8481 59.4893 93.6804 58.7031 93.8892 57.6665L93.0566 57.6665C92.9004 58.3442 92.3804 58.7607 91.6519 58.7607C90.7146 58.7607 90.0383 58.083 90.0383 56.8853L90.0383 56.4165C90.0383 55.2183 90.7146 54.5938 91.6519 54.645L91.6475 54.6445Z" fill="url(#paint_linear_1_327_0)" fill-opacity="1.000000" fill-rule="nonzero"/>
	<path id="Vector" d="M96.4353 55.4785C95.3418 55.4785 94.6133 56.1553 94.6133 57.3535L94.6133 57.6665C94.6133 58.8125 95.3418 59.5415 96.4353 59.5415C97.5286 59.5415 98.0486 59.0176 98.2563 58.2393L97.5276 58.2393C97.3716 58.6035 97.1638 58.8638 96.4868 58.8638C95.8628 58.8638 95.4458 58.4995 95.4458 57.7178L98.3611 57.7178L98.3611 57.3535C98.3086 56.207 97.5276 55.4785 96.4353 55.4785ZM95.3943 57.0928C95.498 56.4155 95.8628 56.103 96.4353 56.103C97.0591 56.103 97.4238 56.4155 97.4761 57.0928L95.3943 57.0928Z" fill="url(#paint_linear_1_328_0)" fill-opacity="1.000000" fill-rule="nonzero"/>
	<path id="Vector" d="M101.223 55.4785C100.971 55.4805 100.721 55.5317 100.489 55.6304C100.257 55.7285 100.047 55.8716 99.8696 56.0513L99.7659 55.4785L99.1934 55.4785L99.1934 59.3853L99.9219 59.3853L99.9219 57.041C99.9219 56.4683 100.338 56.103 101.014 56.103C101.587 56.103 101.952 56.4683 101.952 57.0928L101.952 59.3853L102.68 59.3853L102.68 57.0928C102.784 56.0513 102.157 55.4785 101.223 55.4785Z" fill="url(#paint_linear_1_329_0)" fill-opacity="1.000000" fill-rule="nonzero"/>
	<path id="Vector" d="M104.866 58.187L104.866 56.1597L105.907 56.1597L105.907 55.5342L104.866 55.5342L104.866 54.4365L104.137 54.4365L104.137 55.5298L103.409 55.5298L103.409 56.1597L104.137 56.1597L104.137 58.2383C104.137 58.9678 104.553 59.3853 105.333 59.3853L106.011 59.3853L106.011 58.7598L105.438 58.7598C105.073 58.8125 104.866 58.6035 104.866 58.187Z" fill="url(#paint_linear_1_330_0)" fill-opacity="1.000000" fill-rule="nonzero"/>
	<path id="Vector" d="M107.468 56.0513L107.364 55.5273L106.792 55.5273L106.792 59.4341L107.52 59.4341L107.52 57.0923C107.52 56.5195 107.937 56.1553 108.717 56.1553L109.133 56.1553L109.133 55.4775L108.717 55.4775C108.193 55.4775 107.728 55.6855 107.468 56.0503L107.468 56.0513Z" fill="url(#paint_linear_1_331_0)" fill-opacity="1.000000" fill-rule="nonzero"/>
	<path id="Vector" d="M111.428 55.4785C110.334 55.4785 109.814 56.0024 109.814 56.6245L110.642 56.6245C110.695 56.3115 110.904 56.1006 111.475 56.1006C112.046 56.1006 112.308 56.3623 112.308 56.7783L112.308 57.04L111.476 57.04C110.174 57.04 109.654 57.5083 109.654 58.3423C109.654 59.019 110.122 59.4883 111.007 59.4883C111.278 59.4917 111.545 59.4326 111.789 59.3149C112.033 59.1978 112.246 59.0254 112.412 58.8115L112.516 59.436L113.086 59.436L113.086 56.7798C112.982 55.9468 112.462 55.4785 111.421 55.4785L111.428 55.4785ZM112.26 57.7705C112.26 58.3433 111.737 58.8125 111.011 58.8125C110.647 58.8125 110.387 58.5503 110.387 58.2393C110.387 57.874 110.648 57.5615 111.428 57.5615L112.26 57.5615L112.26 57.7705Z" fill="url(#paint_linear_1_332_0)" fill-opacity="1.000000" fill-rule="nonzero"/>
	<path id="Vector" d="M114.91 58.187L114.91 53.9678L114.182 53.9678L114.182 58.2397C114.182 58.9688 114.598 59.3853 115.379 59.3853L115.743 59.3853L115.743 58.7603L115.481 58.7603C115.065 58.8125 114.908 58.604 114.908 58.187L114.91 58.187Z" fill="url(#paint_linear_1_333_0)" fill-opacity="1.000000" fill-rule="nonzero"/>
	<path id="Vector" d="M120.114 53.9678L118.032 59.437L118.865 59.437L119.438 57.9268L121.78 57.9268L122.352 59.437L123.185 59.437L121.103 53.9678L120.114 53.9678ZM119.646 57.249L120.169 55.9468L120.585 54.8008L121.002 55.9468L121.47 57.249L119.646 57.249Z" fill="url(#paint_linear_1_334_0)" fill-opacity="1.000000" fill-rule="nonzero"/>
	<path id="Vector" d="M124.33 56.5713C124.33 56.2588 124.538 56.0474 125.115 56.0474C125.638 56.0474 125.791 56.2554 125.9 56.6196L126.68 56.6196C126.576 55.8901 126.108 55.4736 125.119 55.4736C124.078 55.4736 123.557 55.9419 123.557 56.5669C123.557 58.0781 125.952 57.4004 125.952 58.3384C125.952 58.7026 125.743 58.9111 125.119 58.9111C124.547 58.9111 124.334 58.7026 124.287 58.2334L123.501 58.2334C123.605 59.0142 124.074 59.5356 125.115 59.5356C126.26 59.5356 126.728 59.0669 126.728 58.3901C126.78 56.7227 124.334 57.3994 124.334 56.5664L124.33 56.5713Z" fill="url(#paint_linear_1_335_0)" fill-opacity="1.000000" fill-rule="nonzero"/>
	<path id="Vector" d="M127.657 54.437C127.657 54.6987 127.866 54.9048 128.181 54.9048C128.443 54.9048 128.705 54.6973 128.705 54.437C128.705 54.1768 128.497 53.9678 128.181 53.9678C127.919 53.9678 127.657 54.1758 127.657 54.437Z" fill="url(#paint_linear_1_336_0)" fill-opacity="1.000000" fill-rule="nonzero"/>
	<path id="Vector" d="M127.765 55.5303L128.493 55.5303L128.493 59.437L127.765 59.437L127.765 55.5303Z" fill="url(#paint_linear_1_337_0)" fill-opacity="1.000000" fill-rule="evenodd"/>
	<path id="Vector" d="M131.355 55.4785C130.262 55.4785 129.742 56.0024 129.742 56.6245L130.574 56.6245C130.627 56.3115 130.836 56.1006 131.408 56.1006C131.979 56.1006 132.24 56.3623 132.24 56.7783L132.24 57.04L131.41 57.04C130.108 57.04 129.588 57.5083 129.588 58.3423C129.588 59.019 130.056 59.4883 130.941 59.4883C131.211 59.4917 131.479 59.4326 131.723 59.3149C131.967 59.1978 132.18 59.0254 132.346 58.8115L132.45 59.436L133.022 59.436L133.022 56.7798C132.918 55.9468 132.346 55.4785 131.357 55.4785L131.355 55.4785ZM132.136 57.7705C132.136 58.3433 131.613 58.8125 130.887 58.8125C130.523 58.8125 130.262 58.5503 130.262 58.2393C130.262 57.874 130.524 57.5615 131.303 57.5615L132.136 57.5615L132.136 57.7705Z" fill="url(#paint_linear_1_338_0)" fill-opacity="1.000000" fill-rule="nonzero"/>
	<path id="Vector" d="M136.039 55.4785C135.787 55.4805 135.538 55.5317 135.306 55.6304C135.073 55.7285 134.863 55.8716 134.686 56.0513L134.582 55.4785L134.01 55.4785L134.01 59.3853L134.738 59.3853L134.738 57.041C134.738 56.4683 135.155 56.103 135.831 56.103C136.403 56.103 136.768 56.4683 136.768 57.0928L136.768 59.3853L137.497 59.3853L137.497 57.0928C137.6 56.0513 136.973 55.4785 136.039 55.4785Z" fill="url(#paint_linear_1_339_0)" fill-opacity="1.000000" fill-rule="nonzero"/>
	<path id="Vector" d="M140.827 59.437L144.418 59.437L144.418 58.7603L141.608 58.7603L141.608 56.9365L143.898 56.9365L143.898 56.2598L141.608 56.2598L141.608 54.6445L144.418 54.6445L144.418 53.9678L140.827 53.9678L140.827 59.437Z" fill="url(#paint_linear_1_340_0)" fill-opacity="1.000000" fill-rule="nonzero"/>
	<path id="Vector" d="M148.738 55.5303L147.905 55.5303L146.864 56.9365L145.875 55.5303L145.043 55.5303L146.448 57.4053L144.939 59.437L145.771 59.437L146.864 57.9268L147.957 59.437L148.842 59.437L147.333 57.4053L148.738 55.5303Z" fill="url(#paint_linear_1_341_0)" fill-opacity="1.000000" fill-rule="nonzero"/>
	<path id="Vector" d="M151.496 55.4785C150.924 55.4785 150.455 55.6865 150.143 56.103L150.039 55.5303L149.466 55.5303L149.466 60.9995L150.195 60.9995L150.195 59.02C150.457 59.3853 150.872 59.5444 151.444 59.5444C152.381 59.5444 153.057 58.8662 153.057 57.6689L153.057 57.3564C153.161 56.1055 152.433 55.481 151.496 55.481L151.496 55.4785ZM152.381 57.6138C152.381 58.4473 152.016 58.8125 151.34 58.8125C150.768 58.8125 150.299 58.395 150.299 57.6138L150.299 57.3013C150.299 56.5718 150.768 56.1553 151.34 56.1553C152.016 56.1553 152.381 56.5195 152.381 57.353L152.381 57.6147L152.381 57.6138Z" fill="url(#paint_linear_1_342_0)" fill-opacity="1.000000" fill-rule="nonzero"/>
	<path id="Vector" d="M155.712 55.4785C154.566 55.4785 153.837 56.1553 153.837 57.3535L153.837 57.6665C153.837 58.8125 154.566 59.5415 155.712 59.5415C156.857 59.5415 157.587 58.8672 157.587 57.6665L157.587 57.3535C157.636 56.1597 156.908 55.4785 155.712 55.4785ZM156.856 57.6138C156.856 58.3999 156.44 58.8125 155.712 58.8125C155.035 58.8125 154.566 58.395 154.566 57.6138L154.566 57.3013C154.566 56.5151 154.982 56.103 155.711 56.103C156.387 56.103 156.856 56.5195 156.856 57.3013L156.856 57.6138Z" fill="url(#paint_linear_1_343_0)" fill-opacity="1.000000" fill-rule="nonzero"/>
	<path id="Vector" d="M164.299 57.249C164.299 58.291 163.726 58.7603 162.841 58.7603C161.957 58.7603 161.384 58.187 161.384 57.249L161.384 53.9678L160.599 53.9678L160.599 57.249C160.599 58.7075 161.431 59.4893 162.837 59.4893C164.189 59.4893 165.074 58.6562 165.074 57.249L165.074 53.9678L164.294 53.9678L164.294 57.249L164.299 57.249Z" fill="url(#paint_linear_1_344_0)" fill-opacity="1.000000" fill-rule="nonzero"/>
	<path id="Vector" d="M166.016 56.1558L168.253 56.1558L165.912 58.8125L165.912 59.437L169.138 59.437L169.138 58.8125L166.797 58.8125L169.138 56.1558L169.138 55.5303L166.016 55.5303L166.016 56.1558Z" fill="url(#paint_linear_1_345_0)" fill-opacity="1.000000" fill-rule="nonzero"/>
	<path id="Vector" d="M171.948 55.478C171.376 55.478 170.96 55.6343 170.7 56.002L170.7 54.0195L169.971 54.0195L169.971 59.4897L170.544 59.4897L170.647 58.9165C170.909 59.3335 171.376 59.542 172.001 59.542C172.937 59.542 173.614 58.8643 173.614 57.667L173.614 57.354C173.562 56.1035 172.937 55.479 171.948 55.479L171.948 55.478ZM172.833 57.6138C172.833 58.4468 172.469 58.812 171.792 58.812C171.22 58.812 170.751 58.3945 170.751 57.6138L170.751 57.3008C170.751 56.5718 171.22 56.1548 171.792 56.1548C172.417 56.1548 172.833 56.519 172.833 57.3525L172.833 57.6143L172.833 57.6138Z" fill="url(#paint_linear_1_346_0)" fill-opacity="1.000000" fill-rule="nonzero"/>
	<path id="Vector" d="M176.164 55.4785C175.071 55.4785 174.343 56.1553 174.343 57.3535L174.343 57.6665C174.343 58.8125 175.071 59.5415 176.164 59.5415C177.256 59.5415 177.777 59.0176 177.986 58.2393L177.257 58.2393C177.101 58.6035 176.892 58.8638 176.216 58.8638C175.591 58.8638 175.175 58.4995 175.175 57.7178L178.092 57.7178L178.092 57.3535C177.988 56.207 177.26 55.4785 176.167 55.4785L176.164 55.4785ZM175.071 57.0928C175.175 56.4155 175.539 56.103 176.112 56.103C176.736 56.103 177.101 56.4155 177.152 57.0928L175.071 57.0928Z" fill="url(#paint_linear_1_347_0)" fill-opacity="1.000000" fill-rule="nonzero"/>
	<path id="Vector" d="M182.253 55.5303L181.317 55.5303L179.703 57.5093L179.703 53.9678L178.975 53.9678L178.975 59.437L179.703 59.437L179.703 58.5L180.327 57.7183L181.473 59.437L182.409 59.437L180.797 57.249L182.253 55.5303Z" fill="url(#paint_linear_1_348_0)" fill-opacity="1.000000" fill-rule="nonzero"/>
	<path id="Vector" d="M183.19 55.5303L183.918 55.5303L183.918 59.437L183.19 59.437L183.19 55.5303Z" fill="url(#paint_linear_1_349_0)" fill-opacity="1.000000" fill-rule="evenodd"/>
	<path id="Vector" d="M183.034 54.437C183.034 54.6987 183.242 54.9048 183.557 54.9048C183.819 54.9048 184.081 54.6973 184.081 54.437C184.081 54.1768 183.873 53.9678 183.557 53.9678C183.241 53.9678 183.034 54.1758 183.034 54.437Z" fill="url(#paint_linear_1_350_0)" fill-opacity="1.000000" fill-rule="nonzero"/>
	<path id="Vector" d="M185.792 56.5713C185.792 56.2588 186 56.0474 186.577 56.0474C187.101 56.0474 187.253 56.2554 187.358 56.6196L188.138 56.6196C188.034 55.8901 187.566 55.4736 186.577 55.4736C185.536 55.4736 185.015 55.9419 185.015 56.5669C185.015 58.0781 187.41 57.4004 187.41 58.3384C187.41 58.7026 187.201 58.9111 186.577 58.9111C186.005 58.9111 185.792 58.7026 185.744 58.2334L184.964 58.2334C185.068 59.0142 185.536 59.5356 186.577 59.5356C187.722 59.5356 188.191 59.0669 188.191 58.3901C188.242 56.7227 185.796 57.3994 185.796 56.5664L185.792 56.5713Z" fill="url(#paint_linear_1_351_0)" fill-opacity="1.000000" fill-rule="nonzero"/>
	<path id="Vector" d="M190.216 58.187L190.216 56.1597L191.257 56.1597L191.257 55.5342L190.216 55.5342L190.216 54.4365L189.43 54.4365L189.43 55.5298L188.702 55.5298L188.702 56.1597L189.436 56.1597L189.436 58.2383C189.436 58.9678 189.852 59.3853 190.633 59.3853L191.309 59.3853L191.309 58.7598L190.737 58.7598C190.373 58.8125 190.213 58.6035 190.213 58.187L190.216 58.187Z" fill="url(#paint_linear_1_352_0)" fill-opacity="1.000000" fill-rule="nonzero"/>
	<path id="Vector" d="M193.703 55.4785C192.609 55.4785 192.089 56.0024 192.089 56.6245L192.926 56.6245C192.979 56.3115 193.188 56.1006 193.759 56.1006C194.329 56.1006 194.592 56.3623 194.592 56.7783L194.592 57.04L193.759 57.04C192.458 57.04 191.938 57.5083 191.938 58.3423C191.938 59.019 192.406 59.4883 193.291 59.4883C193.561 59.4917 193.829 59.4326 194.073 59.3149C194.316 59.1978 194.53 59.0254 194.696 58.8115L194.8 59.436L195.369 59.436L195.369 56.7798C195.318 55.9468 194.745 55.4785 193.704 55.4785L193.703 55.4785ZM194.584 57.7705C194.584 58.3433 194.061 58.8125 193.334 58.8125C192.971 58.8125 192.711 58.5503 192.711 58.2393C192.711 57.874 192.972 57.5615 193.751 57.5615L194.584 57.5615L194.584 57.7705Z" fill="url(#paint_linear_1_353_0)" fill-opacity="1.000000" fill-rule="nonzero"/>
	<path id="Vector" d="M198.438 55.4785C198.186 55.48 197.937 55.5317 197.705 55.6299C197.473 55.728 197.262 55.8716 197.085 56.0513L196.981 55.4785L196.408 55.4785L196.408 59.3853L197.137 59.3853L197.137 57.041C197.137 56.4683 197.553 56.103 198.23 56.103C198.803 56.103 199.167 56.4683 199.167 57.0928L199.167 59.3853L199.895 59.3853L199.895 57.0928C200 56.0513 199.372 55.4785 198.438 55.4785Z" fill="url(#paint_linear_1_354_0)" fill-opacity="1.000000" fill-rule="nonzero"/>
	<path id="Vector" d="M130.106 17.9199C127.296 17.9199 125.787 19.6387 125.787 19.6387C126.828 21.5664 126.203 23.3943 125.37 25.4216L115.482 49.2271L120.892 49.2271L122.818 44.0737L139.055 44.0737L141.032 49.2271L147.228 49.2271C147.228 49.2271 138.641 27.7134 136.767 22.8171C135.361 19.1182 132.864 17.9199 130.105 17.9199L130.106 17.9199ZM124.329 39.9548L130.786 22.8171L137.448 39.9548L124.329 39.9548Z" fill="url(#paint_linear_1_355_0)" fill-opacity="1.000000" fill-rule="nonzero"/>
	<path id="Vector" d="M102.055 21.8264C107.259 21.8264 110.17 24.5872 111.84 26.9314C112.777 26.2546 114.129 24.7959 114.129 22.8169C114.129 20.2639 111.371 17.8682 104.813 17.8682C94.4055 17.8682 86.1824 25.1086 86.1824 34.4331C86.1824 41.6221 91.2825 49.644 102.316 49.644C109.446 49.644 113.505 45.9453 113.505 45.9453L114.078 42.1948C112.36 43.2886 108.978 44.9023 104.345 44.9023C95.7588 44.9023 91.855 38.8604 91.855 32.6086C91.9597 25.2117 97.4238 21.8254 102.055 21.8254L102.055 21.8264Z" fill="url(#paint_linear_1_356_0)" fill-opacity="1.000000" fill-rule="nonzero"/>
	<path id="Vector" d="M200 49.123L191.204 38.293L197.138 31.0515C198.751 29.124 198.023 26.6758 195.421 26.6758C193.807 26.6758 192.559 27.6663 192.559 27.6663C192.559 27.6663 192.923 29.489 190.997 31.8855L188.5 34.8552L183.451 28.6042C182.462 27.4583 181.525 26.6768 179.912 26.6768C177.778 26.6768 176.633 28.2915 176.633 28.2915C176.633 28.2915 177.778 29.3335 180.536 32.8752L185.116 38.762L176.478 49.0757L182.412 49.0757L187.929 42.3042L193.185 49.0757L200.003 49.0757L200.003 49.1284L200 49.123Z" fill="url(#paint_linear_1_357_0)" fill-opacity="1.000000" fill-rule="nonzero"/>
	<path id="Vector" d="M163.57 22.2441C168.774 22.2441 171.636 23.7544 172.625 24.3271C173.302 23.6504 174.134 22.6084 174.134 21.3062C174.134 19.5349 172.782 18.4414 170.491 18.4414L150.143 18.4414C151.028 19.7952 151.235 22.0879 151.235 23.8564L151.184 49.1206L172.937 49.1206L173.562 45.0576L156.802 45.0576L156.802 35.6353L168.511 35.6353L169.135 31.5198L156.802 31.5198L156.802 22.1919L163.567 22.2441L163.57 22.2441Z" fill="url(#paint_linear_1_358_0)" fill-opacity="1.000000" fill-rule="nonzero"/>
</svg>
